# xmcd
#
# Track frame offsets:
# 150
# 12029
# 26754
# 40828
# 54075
# 69153
# 82039
# 96183
# 109625
# 124456
# 138914
# 158625
# 173068
# 189122
# 206453
#
# Disc length: 2920 seconds
#
#
# Revision: 0
# Processed by: cddbd v1.5.2PL0 Copyright (c) Steve Scherf et al.
# Submitted via: FreeRIP 2.944 
#
DISCID=b50b660f
DTITLE=Rodney and Eduardo - Incendiando a Galera
DYEAR=2009
DGENRE=Country
TTITLE0=Mercedita
TTITLE1=Chorei Largado
TTITLE2=Coisas Exotéricas
TTITLE3=Chora, Me Liga
TTITLE4=Seu Brilho Olhar
TTITLE5=Pirraça
TTITLE6=Você Não Merece
TTITLE7=Amor Meu Vício
TTITLE8=Granfino e o Caipira
TTITLE9=Ponteio da Viola
TTITLE10=Pout Pourri
TTITLE11=Boate Azul
TTITLE12=Ainda Ontem Chorei de Saudade
TTITLE13=Esperando Ela Voltar
TTITLE14=Primeiros Erros
EXTD=Disco de Estúdio [Promocional]
EXTT0=
EXTT1=
EXTT2=
EXTT3=
EXTT4=
EXTT5=
EXTT6=
EXTT7=
EXTT8=
EXTT9=
EXTT10=
EXTT11=
EXTT12=
EXTT13=
EXTT14=
PLAYORDER=
